<svg
          width="256px"
          height="66px"
          viewBox="0 0 256 66"
          version="1.1"
          xmlns="http://www.w3.org/2000/svg"
          xmlns:xlink="http://www.w3.org/1999/xlink"
        >
          <title>Meema Logo</title>
          <defs>
            <linearGradient
              x1="55.4%"
              y1="31.1%"
              x2="25.4%"
              y2="81.6%"
              id="linearGradient-1"
            >
              <stop stop-color="#27AAE1" offset="0%"></stop>
              <stop stop-color="#27A1DB" offset="15.3%"></stop>
              <stop stop-color="#288BCA" offset="39.3%"></stop>
              <stop stop-color="#2966B0" offset="69.1%"></stop>
              <stop stop-color="#2B3990" offset="100%"></stop>
            </linearGradient>
            <linearGradient
              x1="54.6%"
              y1="30.9%"
              x2="44.4%"
              y2="59.8%"
              id="linearGradient-2"
            >
              <stop stop-color="#27AAE1" offset="0%"></stop>
              <stop stop-color="#27A5DD" offset="17.5%"></stop>
              <stop stop-color="#2798D4" offset="36.7%"></stop>
              <stop stop-color="#2882C4" offset="56.8%"></stop>
              <stop stop-color="#2963AE" offset="77.5%"></stop>
              <stop stop-color="#2A3C92" offset="98.5%"></stop>
              <stop stop-color="#2B3990" offset="100%"></stop>
            </linearGradient>
            <linearGradient
              x1="50%"
              y1="0%"
              x2="50%"
              y2="100%"
              id="linearGradient-3"
            >
              <stop stop-color="#27AAE1" offset="0%"></stop>
              <stop stop-color="#27A5DD" offset="17.5%"></stop>
              <stop stop-color="#2798D4" offset="36.7%"></stop>
              <stop stop-color="#2882C4" offset="56.8%"></stop>
              <stop stop-color="#2963AE" offset="77.5%"></stop>
              <stop stop-color="#2A3C92" offset="98.5%"></stop>
              <stop stop-color="#2B3990" offset="100%"></stop>
            </linearGradient>
            <linearGradient
              x1="46.5%"
              y1="45.3%"
              x2="57.6%"
              y2="84.5%"
              id="linearGradient-4"
            >
              <stop stop-color="#27AAE1" offset="0%"></stop>
              <stop stop-color="#27A5DD" offset="17.5%"></stop>
              <stop stop-color="#2798D4" offset="36.7%"></stop>
              <stop stop-color="#2882C4" offset="56.8%"></stop>
              <stop stop-color="#2963AE" offset="77.5%"></stop>
              <stop stop-color="#2A3C92" offset="98.5%"></stop>
              <stop stop-color="#2B3990" offset="100%"></stop>
            </linearGradient>
            <linearGradient
              x1="100%"
              y1="50%"
              x2="0%"
              y2="50%"
              id="linearGradient-5"
            >
              <stop stop-color="#27AAE1" offset="0%"></stop>
              <stop stop-color="#27A5DD" offset="17.5%"></stop>
              <stop stop-color="#2798D4" offset="36.7%"></stop>
              <stop stop-color="#2882C4" offset="56.8%"></stop>
              <stop stop-color="#2963AE" offset="77.5%"></stop>
              <stop stop-color="#2A3C92" offset="98.5%"></stop>
              <stop stop-color="#2B3990" offset="100%"></stop>
            </linearGradient>
            <linearGradient
              x1="100%"
              y1="50%"
              x2="0%"
              y2="50%"
              id="linearGradient-6"
            >
              <stop stop-color="#27AAE1" offset="0%"></stop>
              <stop stop-color="#27A5DD" offset="17.5%"></stop>
              <stop stop-color="#2798D4" offset="36.7%"></stop>
              <stop stop-color="#2882C4" offset="56.8%"></stop>
              <stop stop-color="#2963AE" offset="77.5%"></stop>
              <stop stop-color="#2A3C92" offset="98.5%"></stop>
              <stop stop-color="#2B3990" offset="100%"></stop>
            </linearGradient>
            <linearGradient
              x1="92.6%"
              y1="59%"
              x2="45%"
              y2="45.1%"
              id="linearGradient-7"
            >
              <stop stop-color="#27AAE1" offset="0%"></stop>
              <stop stop-color="#27A5DD" offset="17.5%"></stop>
              <stop stop-color="#2798D4" offset="36.7%"></stop>
              <stop stop-color="#2882C4" offset="56.8%"></stop>
              <stop stop-color="#2963AE" offset="77.5%"></stop>
              <stop stop-color="#2A3C92" offset="98.5%"></stop>
              <stop stop-color="#2B3990" offset="100%"></stop>
            </linearGradient>
            <linearGradient
              x1="70.6%"
              y1="78.6%"
              x2="45.3%"
              y2="32.9%"
              id="linearGradient-8"
            >
              <stop stop-color="#27AAE1" offset="0%"></stop>
              <stop stop-color="#27A5DD" offset="17.5%"></stop>
              <stop stop-color="#2798D4" offset="36.7%"></stop>
              <stop stop-color="#2882C4" offset="56.8%"></stop>
              <stop stop-color="#2963AE" offset="77.5%"></stop>
              <stop stop-color="#2A3C92" offset="98.5%"></stop>
              <stop stop-color="#2B3990" offset="100%"></stop>
            </linearGradient>
            <linearGradient
              x1="54.9%"
              y1="57.8%"
              x2="44.2%"
              y2="26.6%"
              id="linearGradient-9"
            >
              <stop stop-color="#27AAE1" offset="0%"></stop>
              <stop stop-color="#27A5DD" offset="17.5%"></stop>
              <stop stop-color="#2798D4" offset="36.7%"></stop>
              <stop stop-color="#2882C4" offset="56.8%"></stop>
              <stop stop-color="#2963AE" offset="77.5%"></stop>
              <stop stop-color="#2A3C92" offset="98.5%"></stop>
              <stop stop-color="#2B3990" offset="100%"></stop>
            </linearGradient>
            <linearGradient
              x1="50%"
              y1="100%"
              x2="50%"
              y2="0%"
              id="linearGradient-10"
            >
              <stop stop-color="#27AAE1" offset="0%"></stop>
              <stop stop-color="#27A5DD" offset="17.5%"></stop>
              <stop stop-color="#2798D4" offset="36.7%"></stop>
              <stop stop-color="#2882C4" offset="56.8%"></stop>
              <stop stop-color="#2963AE" offset="77.5%"></stop>
              <stop stop-color="#2A3C92" offset="98.5%"></stop>
              <stop stop-color="#2B3990" offset="100%"></stop>
            </linearGradient>
            <linearGradient
              x1="41.1%"
              y1="139.3%"
              x2="53.7%"
              y2="19.4%"
              id="linearGradient-11"
            >
              <stop stop-color="#27AAE1" offset="0%"></stop>
              <stop stop-color="#27A5DD" offset="17.5%"></stop>
              <stop stop-color="#2798D4" offset="36.7%"></stop>
              <stop stop-color="#2882C4" offset="56.8%"></stop>
              <stop stop-color="#2963AE" offset="77.5%"></stop>
              <stop stop-color="#2A3C92" offset="98.5%"></stop>
              <stop stop-color="#2B3990" offset="100%"></stop>
            </linearGradient>
            <linearGradient
              x1="20.2%"
              y1="35.4%"
              x2="59.7%"
              y2="61.1%"
              id="linearGradient-12"
            >
              <stop stop-color="#27AAE1" offset="0%"></stop>
              <stop stop-color="#27A5DD" offset="17.5%"></stop>
              <stop stop-color="#2798D4" offset="36.7%"></stop>
              <stop stop-color="#2882C4" offset="56.8%"></stop>
              <stop stop-color="#2963AE" offset="77.5%"></stop>
              <stop stop-color="#2A3C92" offset="98.5%"></stop>
              <stop stop-color="#2B3990" offset="100%"></stop>
            </linearGradient>
            <linearGradient
              x1="-8.9%"
              y1="38.1%"
              x2="62.3%"
              y2="56.7%"
              id="linearGradient-13"
            >
              <stop stop-color="#27AAE1" offset="0%"></stop>
              <stop stop-color="#27A5DD" offset="17.5%"></stop>
              <stop stop-color="#2798D4" offset="36.7%"></stop>
              <stop stop-color="#2882C4" offset="56.8%"></stop>
              <stop stop-color="#2963AE" offset="77.5%"></stop>
              <stop stop-color="#2A3C92" offset="98.5%"></stop>
              <stop stop-color="#2B3990" offset="100%"></stop>
            </linearGradient>
            <linearGradient
              x1="0%"
              y1="50%"
              x2="100%"
              y2="50%"
              id="linearGradient-14"
            >
              <stop stop-color="#27AAE1" offset="0%"></stop>
              <stop stop-color="#27A5DD" offset="17.5%"></stop>
              <stop stop-color="#2798D4" offset="36.7%"></stop>
              <stop stop-color="#2882C4" offset="56.8%"></stop>
              <stop stop-color="#2963AE" offset="77.5%"></stop>
              <stop stop-color="#2A3C92" offset="98.5%"></stop>
              <stop stop-color="#2B3990" offset="100%"></stop>
            </linearGradient>
            <linearGradient
              x1="42.8%"
              y1="55.1%"
              x2="105.8%"
              y2="38.6%"
              id="linearGradient-15"
            >
              <stop stop-color="#27AAE1" offset="0%"></stop>
              <stop stop-color="#27A5DD" offset="17.5%"></stop>
              <stop stop-color="#2798D4" offset="36.7%"></stop>
              <stop stop-color="#2882C4" offset="56.8%"></stop>
              <stop stop-color="#2963AE" offset="77.5%"></stop>
              <stop stop-color="#2A3C92" offset="98.5%"></stop>
              <stop stop-color="#2B3990" offset="100%"></stop>
            </linearGradient>
            <linearGradient
              x1="43.6%"
              y1="59.1%"
              x2="76%"
              y2="35.6%"
              id="linearGradient-16"
            >
              <stop stop-color="#27AAE1" offset="0%"></stop>
              <stop stop-color="#27A5DD" offset="17.5%"></stop>
              <stop stop-color="#2798D4" offset="36.7%"></stop>
              <stop stop-color="#2882C4" offset="56.8%"></stop>
              <stop stop-color="#2963AE" offset="77.5%"></stop>
              <stop stop-color="#2A3C92" offset="98.5%"></stop>
              <stop stop-color="#2B3990" offset="100%"></stop>
            </linearGradient>
            <linearGradient
              x1="34.8%"
              y1="78.7%"
              x2="64.7%"
              y2="40.6%"
              id="linearGradient-17"
            >
              <stop stop-color="#27AAE1" offset="0%"></stop>
              <stop stop-color="#27A5DD" offset="17.5%"></stop>
              <stop stop-color="#2798D4" offset="36.7%"></stop>
              <stop stop-color="#2882C4" offset="56.8%"></stop>
              <stop stop-color="#2963AE" offset="77.5%"></stop>
              <stop stop-color="#2A3C92" offset="98.5%"></stop>
              <stop stop-color="#2B3990" offset="100%"></stop>
            </linearGradient>
            <linearGradient
              x1="41.2%"
              y1="96.7%"
              x2="55.3%"
              y2="39.9%"
              id="linearGradient-18"
            >
              <stop stop-color="#27AAE1" offset="0%"></stop>
              <stop stop-color="#27A5DD" offset="17.5%"></stop>
              <stop stop-color="#2798D4" offset="36.7%"></stop>
              <stop stop-color="#2882C4" offset="56.8%"></stop>
              <stop stop-color="#2963AE" offset="77.5%"></stop>
              <stop stop-color="#2A3C92" offset="98.5%"></stop>
              <stop stop-color="#2B3990" offset="100%"></stop>
            </linearGradient>
            <linearGradient
              x1="30.6%"
              y1="22.9%"
              x2="50.6%"
              y2="65.4%"
              id="linearGradient-19"
            >
              <stop stop-color="#27AAE1" offset="0%"></stop>
              <stop stop-color="#27A3DC" offset="15.3%"></stop>
              <stop stop-color="#278FCE" offset="37.3%"></stop>
              <stop stop-color="#2970B7" offset="63.5%"></stop>
              <stop stop-color="#2A4598" offset="92.6%"></stop>
              <stop stop-color="#2B3990" offset="100%"></stop>
            </linearGradient>
            <linearGradient
              x1="50%"
              y1="0%"
              x2="50%"
              y2="100%"
              id="linearGradient-20"
            >
              <stop stop-color="#27AAE1" offset="0%"></stop>
              <stop stop-color="#27A5DD" offset="17.5%"></stop>
              <stop stop-color="#2798D4" offset="36.7%"></stop>
              <stop stop-color="#2882C4" offset="56.8%"></stop>
              <stop stop-color="#2963AE" offset="77.5%"></stop>
              <stop stop-color="#2A3C92" offset="98.5%"></stop>
              <stop stop-color="#2B3990" offset="100%"></stop>
            </linearGradient>
          </defs>
          <g
            id="Page-1"
            stroke="none"
            stroke-width="1"
            fill="none"
            fill-rule="evenodd"
          >
            <g
              id="cloudish-sheep-7-w:text"
              transform="translate(3.000000, 3.000000)"
              fill-rule="nonzero"
            >
              <path
                d="M63.6525382,25.4408145 C63.1458909,22.3297164 60.6061382,22.3290182 60.6061382,22.3290182 C60.6061382,22.3290182 62.7109236,21.7376582 63.5385018,20.0885527 C63.9515366,19.3678416 64.0256224,18.5016341 63.7409745,17.7212509 C62.8617309,14.23872 59.2169891,15.5615418 59.2169891,15.5615418 C59.2169891,15.5615418 58.7748073,12.7688145 55.7409745,10.6381964 C54.9613717,9.99539399 54.0530333,9.52717834 53.0771782,9.26510545 C50.4040727,8.33419636 48.9667491,9.22577455 48.9667491,9.22577455 C48.9667491,9.22577455 48.7645091,7.13914182 46.9804218,6.14353455 C46.3350812,5.72280245 45.5634858,5.53965344 44.7979055,5.62548364 C44.7979055,5.62548364 42.4008145,0.691665455 36.8053527,2.02589091 C36.8053527,2.02589091 31.6190255,-2.40802909 27.0773527,1.88206545 C27.0773527,1.88206545 23.9669527,1.43988364 21.7569745,2.40221091 C21.6715636,2.43851636 21.5882473,2.47738182 21.5067927,2.51857455 L21.4616436,2.54184727 C21.4225455,2.56186182 21.3827491,2.58117818 21.34528,2.60212364 C21.2936145,2.63074909 21.2445091,2.66053818 21.1956364,2.69032727 C21.1886545,2.69451636 21.1812073,2.69847273 21.1742255,2.70289455 C21.0932364,2.75293091 21.0171345,2.80459636 20.9442909,2.85765818 C20.9058909,2.88512 20.8686545,2.91351273 20.8314182,2.94213818 C20.8162909,2.95400727 20.8018618,2.96541091 20.7872,2.97844364 C20.2428301,3.40214993 19.8593426,3.99893234 19.7001309,4.67013818 C19.5913244,5.07542527 19.5597447,5.49756611 19.60704,5.91453091 C19.60704,5.91453091 15.2613236,5.15514182 14.74304,9.51342545 C14.74304,9.51342545 11.1699782,7.02789818 7.13728,10.3279709 C3.10458182,13.6280436 5.18749091,16.7137745 5.18749091,16.7137745 C5.18749091,16.7137745 1.87485091,15.7854255 0.432872727,19.0440727 C-0.763345455,21.7472 0.875054545,22.9073455 1.49341091,23.2331636 C1.56163931,23.2772553 1.63554839,23.3118611 1.71310545,23.3360291 C0.764311471,24.4396774 0.239944003,25.8453618 0.234123636,27.3007709 C0.229374523,27.6612741 0.259222777,28.0214015 0.323258182,28.3762036 C0.820363636,31.3067055 3.45041455,32.6956218 3.45041455,32.6956218 C3.45041455,32.6956218 0.660014545,34.2795636 1.74964364,37.8719418 C1.82508875,38.2884381 1.99044203,38.6834752 2.23418182,39.0295273 C2.39582879,39.2570162 2.57553197,39.471119 2.77154909,39.66976 C3.85605818,40.8382836 5.37809455,41.2329891 6.29899636,41.3654109 C6.33809455,41.3714618 6.37556364,41.3763491 6.41256727,41.3814691 L6.41652364,41.3814691 C6.64248948,41.4131222 6.87025561,41.4302241 7.09841455,41.4326691 C6.61559135,41.9329844 6.2360078,42.5234741 5.98132364,43.1704436 C4.94871273,45.9412945 8.83595636,46.6613527 8.83595636,46.6613527 L8.81989818,46.6923055 C8.42146909,47.44192 7.94274909,48.7051636 8.28462545,50.0468364 C8.52573091,51.2891345 9.38333091,52.5935709 11.6151855,53.4290618 C13.0512939,54.1228583 14.6783379,54.3158849 16.2369164,53.9773673 C16.6217632,53.913961 17.0009215,53.8198718 17.3707636,53.696 C18.8015888,52.6739851 19.5780445,52.2010057 19.7001309,52.2770618 C20.0002283,52.4640135 19.084135,53.2578626 18.9270757,53.9773673 C18.8459729,54.3489076 18.7809951,54.7863707 18.9270757,55.1105064 C19.0850321,55.460993 18.797992,55.0604416 18.9270757,55.3102703 C19.5477954,56.5116122 20.7349932,57.3417258 22.4886691,57.8006109 C23.6154996,58.0306469 24.7862741,57.7477815 25.6837818,57.0286545 C25.6837818,57.0286545 25.2860509,59.3326545 30.47936,60.0727273 C30.8240642,60.1308646 31.1716366,60.170485 31.5205818,60.1914182 C31.6011055,60.1986327 31.6783709,60.2067782 31.7614545,60.2146909 C38.3041164,60.7292509 38.3664873,57.0295855 38.3664873,57.0295855 C39.2233154,57.158615 40.0941466,57.1650406 40.9527855,57.0486691 L43.1858272,56.5320027 C43.8410148,56.1633173 44.268121,55.8480961 44.4671458,55.586339 C44.8369652,55.099953 44.8641717,54.2585742 45.1437382,54.0292655 C45.3165499,53.8875202 45.6810008,53.8875202 46.2370909,54.0292655 C47.8447709,54.3771927 50.9507491,54.6157382 53.6562036,52.2770618 C57.31584,49.1133673 54.8729018,46.2289455 54.8729018,46.2289455 C54.8729018,46.2289455 59.1627636,45.9471127 57.9570036,43.0084655 C57.7183535,42.4286823 57.3796209,41.8953754 56.9562764,41.4329018 C56.9562764,41.4329018 59.6638255,41.0416873 61.3457455,39.4007273 C63.1000436,38.0122764 63.0842182,36.5079273 62.5231127,35.2637673 C62.0027345,33.4352291 60.25728,32.5508655 60.25728,32.5508655 C60.3507835,32.5195435 60.4424655,32.4830261 60.5318982,32.4414836 C62.4861198,31.5783599 63.7907827,29.6917287 63.9085382,27.5586327 C63.970892,26.8425806 63.8837145,26.121385 63.6525382,25.4408145 Z"
                id="Path_1"
                stroke="#1870B8"
                stroke-width="4"
                fill="#000000"
              ></path>
              <path
                d="M25.6851782,57.0284218 C25.6851782,57.0284218 27.42272,60.4841891 32.8082618,60.1963055 C38.1938036,59.9084218 38.3676509,57.0284218 38.3676509,57.0284218 C38.3676509,57.0284218 43.92704,58.0358982 45.1437382,53.7169455 C45.1437382,53.7169455 48.4484655,54.7106909 52.4448582,51.5437382 C56.4412509,48.3767855 54.8726691,46.2298764 54.8726691,46.2298764 C54.8726691,46.2298764 60.6052073,45.8540218 56.9569745,41.4336 C56.9569745,41.4336 61.6478255,40.7586909 62.5161309,37.4460509 C63.3844364,34.1334109 60.2586764,32.5515636 60.2586764,32.5515636 C60.2586764,32.5515636 63.55968,31.5433891 63.7335273,26.93632 C63.9073745,22.3292509 60.6059055,22.32832 60.6059055,22.32832 C60.6059055,22.32832 64.7889455,20.8884364 63.7400436,17.72032 C62.6911418,14.5522036 59.2160582,15.5608436 59.2160582,15.5608436 C59.2160582,15.5608436 58.6947491,12.2491345 54.8733673,10.0887273 C51.0519855,7.92832 48.9658182,9.22600727 48.9658182,9.22600727 C48.9658182,9.22600727 48.6199855,5.62571636 44.7969745,5.62571636 C44.7969745,5.62571636 42.3647418,0.730065455 36.8044218,2.02612364 C36.8044218,2.02612364 34.3728873,0.154298182 31.7663418,0.154298182 C29.1597964,0.154298182 27.0754909,1.88206545 27.0754909,1.88206545 C27.0754909,1.88206545 23.4272582,1.45035636 21.34272,2.60189091 C20.1378382,3.24401504 19.4485791,4.55800161 19.6051782,5.91429818 C19.6051782,5.91429818 15.2620218,5.19284364 14.7411782,9.51319273 C14.7411782,9.51319273 12.0231564,7.63927273 7.96509091,11.0976 C3.83208727,14.6199273 5.18562909,16.7128436 5.18562909,16.7128436 C5.18562909,16.7128436 2.88488727,17.4447709 1.49480727,20.18048 C0.104727273,22.9161891 1.71124364,23.3360291 1.71124364,23.3360291 C1.71124364,23.3360291 -0.199912727,25.4957382 0.321396364,28.3764364 C0.842705455,31.2571345 3.44738909,32.6960873 3.44738909,32.6960873 C3.44738909,32.6960873 0.493614545,36.5826327 2.23162182,39.0304582 C3.96962909,41.4782836 7.09562182,41.4340655 7.09562182,41.4340655 C7.09562182,41.4340655 3.27330909,45.2228655 8.83316364,46.6620509 C8.83316364,46.6620509 6.22661818,51.4136436 11.6130909,53.4292945 C16.9995636,55.4449455 19.9521745,52.1334691 19.9521745,52.1334691 C19.9521745,52.1334691 16.3039418,58.75712 25.6851782,57.0284218 Z"
                id="Path_4"
                fill="#1870B8"
              ></path>
              <path
                d="M45.1437382,53.7169455 L32.6751418,30.6189964 L54.8726691,46.2298764 C54.8726691,46.2298764 57.3163055,49.1140655 53.6559709,52.2775273 C49.80736,55.6043636 45.1437382,53.7169455 45.1437382,53.7169455 Z"
                id="Path_5"
                fill="url(#linearGradient-1)"
              ></path>
              <path
                d="M54.8726691,46.2298764 L32.6751418,30.6189964 L56.9569745,41.4336 C56.9569745,41.4336 60.6945745,45.3485382 54.8726691,46.2298764 Z"
                id="Path_6"
                fill="url(#linearGradient-2)"
              ></path>
              <path
                d="M56.9569745,41.4336 L32.6751418,30.6189964 L60.2579782,32.5506327 C60.2579782,32.5506327 67.9181964,38.2007855 56.9569745,41.4336 Z"
                id="Path_7"
                fill="url(#linearGradient-3)"
              ></path>
              <path
                d="M60.6052073,22.3285527 C60.6052073,22.3285527 64.6188218,21.2033164 63.7393455,17.7205527 C62.8598691,14.2377891 59.21536,15.5610764 59.21536,15.5610764 L32.6751418,30.6185309 L60.6052073,22.3285527 Z"
                id="Path_8"
                fill="url(#linearGradient-4)"
              ></path>
              <path
                d="M45.1437382,53.7169455 L32.6751418,30.6189964 L38.3676509,57.0284218 C38.3676509,57.0284218 44.1730327,57.8811345 45.1437382,53.7169455 Z"
                id="Path_9"
                fill="url(#linearGradient-5)"
              ></path>
              <path
                d="M38.3676509,57.0284218 C38.3676509,57.0284218 38.30528,60.7287855 31.7628509,60.2135273 C25.2204218,59.6982691 25.6851782,57.0284218 25.6851782,57.0284218 L32.6751418,30.6189964 L38.3676509,57.0284218 Z"
                id="Path_10"
                fill="url(#linearGradient-6)"
              ></path>
              <path
                d="M25.6851782,57.0284218 C25.6851782,57.0284218 23.3714036,59.1099345 20.3776,56.7686982 C17.3837964,54.4274618 19.9524073,52.1330036 19.9524073,52.1330036 L32.6751418,30.6189964 L25.6851782,57.0284218 Z"
                id="Path_11"
                fill="url(#linearGradient-7)"
              ></path>
              <path
                d="M19.9524073,52.1330036 C19.9524073,52.1330036 16.2145745,55.5920291 11.6133236,53.4288291 C7.01207273,51.2656291 8.08890182,48.0451491 8.83339636,46.6615855 L32.6751418,30.6189964 L19.9524073,52.1330036 Z"
                id="Path_12"
                fill="url(#linearGradient-8)"
              ></path>
              <path
                d="M8.83339636,46.6615855 C8.83339636,46.6615855 3.39083636,45.6548073 7.09585455,41.4336 C10.8008727,37.2123927 32.6751418,30.6189964 32.6751418,30.6189964 L8.83339636,46.6615855 Z"
                id="Path_13"
                fill="url(#linearGradient-9)"
              ></path>
              <path
                d="M7.09585455,41.4336249 C7.09585455,41.4336249 2.83694545,41.4638545 1.74685091,37.8728727 C0.656756364,34.2818909 3.44738909,32.69632 3.44738909,32.69632 L32.6751418,30.6196945 L7.09585455,41.4336249 Z"
                id="Path_14"
                fill="url(#linearGradient-10)"
              ></path>
              <path
                d="M3.44738909,32.6960873 C3.44738909,32.6960873 0.817570909,31.3071709 0.320465455,28.3769018 C0.00909364521,26.5734372 0.518709094,24.7250999 1.71031273,23.3360291 L32.6751418,30.6189964 L3.44738909,32.6960873 Z"
                id="Path_15"
                fill="url(#linearGradient-11)"
              ></path>
              <path
                d="M48.96512,9.22647273 C48.96512,9.22647273 48.1186909,5.32386909 44.7962764,5.62618182 L32.6751418,30.6189964 L32.6751418,30.6189964 L48.96512,9.22647273 Z"
                id="Path_16"
                fill="url(#linearGradient-12)"
              ></path>
              <path
                d="M32.6751418,30.6189964 L44.7962764,5.62618182 C44.7962764,5.62618182 42.3991855,0.6912 36.8037236,2.02658909 L31.7628509,12.8949527 L32.6751418,30.6189964 Z"
                id="Path_17"
                fill="url(#linearGradient-13)"
              ></path>
              <path
                d="M36.8037236,2.02658909 C36.8037236,2.02658909 31.6173964,-2.40756364 27.0757236,1.88253091 L30.2836364,29.0171345 L32.6760727,30.6189964 L36.8037236,2.02658909 Z"
                id="Path_18"
                fill="url(#linearGradient-14)"
              ></path>
              <path
                d="M27.0747927,1.88299636 C27.0747927,1.88299636 19.2428218,0.768930909 19.6042473,5.91522909 L32.6749091,30.6194618 L27.0747927,1.88299636 Z"
                id="Path_19"
                fill="url(#linearGradient-15)"
              ></path>
              <path
                d="M19.60448,5.91476364 C19.60448,5.91476364 15.2587636,5.15537455 14.74048,9.51365818 L32.6753745,30.6189964 L19.60448,5.91476364 Z"
                id="Path_20"
                fill="url(#linearGradient-16)"
              ></path>
              <path
                d="M14.7402473,9.51365818 C14.7402473,9.51365818 11.1671855,7.02813091 7.13448727,10.3282036 C3.10178909,13.6282764 5.18469818,16.7137745 5.18469818,16.7137745 L32.6751418,30.6194618 L32.6751418,30.6194618 L14.7402473,9.51365818 Z"
                id="Path_21"
                fill="url(#linearGradient-17)"
              ></path>
              <path
                d="M5.18469818,16.7133091 C5.18469818,16.7133091 1.87205818,15.78496 0.43008,19.04384 C-1.02353455,22.3285527 1.71008,23.3360291 1.71008,23.3360291 L32.6749091,30.6189964 L5.18469818,16.7133091 Z"
                id="Path_22"
                fill="url(#linearGradient-18)"
              ></path>
              <path
                d="M32.6751418,30.6189964 L59.21536,15.5615418 C59.21536,15.5615418 58.80576,13.1821382 55.7612218,10.6551855 C52.7166836,8.12823273 48.9655855,9.22670545 48.9655855,9.22670545 L32.6751418,30.6189964 Z"
                id="Path_23"
                fill="url(#linearGradient-19)"
              ></path>
              <path
                d="M60.2579782,32.5515636 C62.3529545,31.7527992 63.7826932,29.7971974 63.9083055,27.5586327 C64.2038691,23.6488145 60.6052073,22.3285527 60.6052073,22.3285527 L32.6751418,30.6189964 L60.2579782,32.5515636 Z"
                id="Path_24"
                fill="url(#linearGradient-20)"
              ></path>
              <path
                d="M42.0532733,20.85792 C42.0532733,20.85792 41.9867133,18.1971491 39.7243715,17 L38.9265824,18.0640291 C38.9265824,18.0640291 40.9880806,19.8602182 40.2568515,21.45696 C39.5256224,23.0537018 37.7294333,23.3853382 35.9998042,21.19072 C35.9998042,21.19072 35.0021024,25.1815273 31.9422042,25.1815273 C28.882306,25.1815273 27.8843715,21.19072 27.8843715,21.19072 C26.1547424,23.3853382 24.3585533,23.0525382 23.6270915,21.45696 C22.8956296,19.8613818 24.9575933,18.0640291 24.9575933,18.0640291 L24.1595715,17 C21.8974624,18.1971491 21.8309024,20.85792 21.8309024,20.85792 C21.8309024,20.85792 11.2548442,22.8537891 13.2507133,26.1126691 C15.2465824,29.3715491 22.4965024,27.1776291 22.4965024,27.1776291 C24.2926915,40.4139927 26.9534624,41.6765382 28.6158333,42.9414109 C30.2782042,44.2062836 32.0085315,41.0128 31.1441824,40.48032 C30.2798333,39.94784 28.5490406,38.3524945 29.2812006,37.4874473 C30.0133606,36.6224 31.9422042,38.3524945 31.9422042,38.3524945 C31.9422042,38.3524945 33.8715133,36.6230982 34.6025096,37.4874473 C35.333506,38.3517964 33.6050406,39.9483055 32.7406915,40.48032 C31.8763424,41.0123345 33.6059715,44.20512 35.2692733,42.9414109 C36.9325751,41.6777018 39.5921824,40.4139927 41.3883715,27.1776291 C41.3883715,27.1776291 48.6392224,29.3722473 50.6343933,26.1126691 C52.6295642,22.8530909 42.0532733,20.85792 42.0532733,20.85792 Z"
                id="Path_25"
                stroke="#1870B8"
                stroke-width="3"
                fill="#FFFFFF"
              ></path>
              <path
                d="M42.0532733,20.85792 C42.0532733,20.85792 41.9867133,18.1971491 39.7243715,17 L38.9265824,18.0640291 C38.9265824,18.0640291 40.9880806,19.8602182 40.2568515,21.45696 C39.5256224,23.0537018 37.7294333,23.3853382 35.9998042,21.19072 C35.9998042,21.19072 35.0021024,25.1815273 31.9422042,25.1815273 C28.882306,25.1815273 27.8843715,21.19072 27.8843715,21.19072 C26.1547424,23.3853382 24.3585533,23.0525382 23.6270915,21.45696 C22.8956296,19.8613818 24.9575933,18.0640291 24.9575933,18.0640291 L24.1598042,17 C21.8974624,18.1971491 21.8309024,20.85792 21.8309024,20.85792 C21.8309024,20.85792 11.2548442,22.8537891 13.2507133,26.1129018 C15.2465824,29.3720145 22.4967351,27.1776291 22.4967351,27.1776291 C24.2926915,40.4139927 26.9534624,41.6765382 28.6158333,42.9414109 C30.2782042,44.2062836 32.0085315,41.0128 31.1444151,40.48032 C30.2802987,39.94784 28.5490406,38.3524945 29.2812006,37.4874473 C30.0133606,36.6224 31.9422042,38.3524945 31.9422042,38.3524945 C31.9422042,38.3524945 33.8715133,36.6230982 34.6025096,37.4874473 C35.333506,38.3517964 33.6050406,39.9483055 32.7406915,40.48032 C31.8763424,41.0123345 33.6059715,44.20512 35.2692733,42.9414109 C36.9325751,41.6777018 39.5921824,40.4139927 41.3883715,27.1776291 C41.3883715,27.1776291 48.6392224,29.37248 50.6343933,26.1129018 C52.6295642,22.8533236 42.0532733,20.85792 42.0532733,20.85792 Z"
                id="Path_26"
                fill="#FFFFFF"
              ></path>
              <g
                id="MEEMA"
                transform="translate(83.000000, 2.000000)"
                fill="#000000"
                font-family="Rubik-Medium, Rubik Medium"
                font-size="48"
                font-weight="normal"
              >
                <text id="meema">
                  <tspan x="0" y="45">meema</tspan>
                </text>
              </g>
            </g>
          </g>
        </svg>